<svg id="visual" viewBox="0 0 900 600" width="900" height="600" xmlns="http://www.w3.org/2000/svg" xmlns:xlink="http://www.w3.org/1999/xlink" version="1.1"><path d="M0 55L11.5 55C23 55 46 55 69 59C92 63 115 71 138.2 71C161.3 71 184.7 63 207.8 62C231 61 254 67 277 85C300 103 323 133 346 155C369 177 392 191 415.2 183C438.3 175 461.7 145 484.8 141C508 137 531 159 554 155C577 151 600 121 623 134C646 147 669 203 692.2 226C715.3 249 738.7 239 761.8 230C785 221 808 213 831 185C854 157 877 109 888.5 85L900 61L900 0L888.5 0C877 0 854 0 831 0C808 0 785 0 761.8 0C738.7 0 715.3 0 692.2 0C669 0 646 0 623 0C600 0 577 0 554 0C531 0 508 0 484.8 0C461.7 0 438.3 0 415.2 0C392 0 369 0 346 0C323 0 300 0 277 0C254 0 231 0 207.8 0C184.7 0 161.3 0 138.2 0C115 0 92 0 69 0C46 0 23 0 11.5 0L0 0Z" fill="#454545"></path><path d="M0 391L11.5 371C23 351 46 311 69 305C92 299 115 327 138.2 332C161.3 337 184.7 319 207.8 320C231 321 254 341 277 359C300 377 323 393 346 376C369 359 392 309 415.2 286C438.3 263 461.7 267 484.8 269C508 271 531 271 554 296C577 321 600 371 623 378C646 385 669 349 692.2 335C715.3 321 738.7 329 761.8 340C785 351 808 365 831 375C854 385 877 391 888.5 394L900 397L900 59L888.5 83C877 107 854 155 831 183C808 211 785 219 761.8 228C738.7 237 715.3 247 692.2 224C669 201 646 145 623 132C600 119 577 149 554 153C531 157 508 135 484.8 139C461.7 143 438.3 173 415.2 181C392 189 369 175 346 153C323 131 300 101 277 83C254 65 231 59 207.8 60C184.7 61 161.3 69 138.2 69C115 69 92 61 69 57C46 53 23 53 11.5 53L0 53Z" fill="#333333"></path><path d="M0 409L11.5 402C23 395 46 381 69 386C92 391 115 415 138.2 423C161.3 431 184.7 423 207.8 423C231 423 254 431 277 438C300 445 323 451 346 439C369 427 392 397 415.2 383C438.3 369 461.7 371 484.8 371C508 371 531 369 554 385C577 401 600 435 623 436C646 437 669 405 692.2 398C715.3 391 738.7 409 761.8 422C785 435 808 443 831 446C854 449 877 447 888.5 446L900 445L900 395L888.5 392C877 389 854 383 831 373C808 363 785 349 761.8 338C738.7 327 715.3 319 692.2 333C669 347 646 383 623 376C600 369 577 319 554 294C531 269 508 269 484.8 267C461.7 265 438.3 261 415.2 284C392 307 369 357 346 374C323 391 300 375 277 357C254 339 231 319 207.8 318C184.7 317 161.3 335 138.2 330C115 325 92 297 69 303C46 309 23 349 11.5 369L0 389Z" fill="#222222"></path><path d="M0 493L11.5 483C23 473 46 453 69 453C92 453 115 473 138.2 481C161.3 489 184.7 485 207.8 484C231 483 254 485 277 491C300 497 323 507 346 500C369 493 392 469 415.2 457C438.3 445 461.7 445 484.8 453C508 461 531 477 554 490C577 503 600 513 623 498C646 483 669 443 692.2 439C715.3 435 738.7 467 761.8 481C785 495 808 491 831 502C854 513 877 539 888.5 552L900 565L900 443L888.5 444C877 445 854 447 831 444C808 441 785 433 761.8 420C738.7 407 715.3 389 692.2 396C669 403 646 435 623 434C600 433 577 399 554 383C531 367 508 369 484.8 369C461.7 369 438.3 367 415.2 381C392 395 369 425 346 437C323 449 300 443 277 436C254 429 231 421 207.8 421C184.7 421 161.3 429 138.2 421C115 413 92 389 69 384C46 379 23 393 11.5 400L0 407Z" fill="#1e1e1e"></path><path d="M0 601L11.5 601C23 601 46 601 69 601C92 601 115 601 138.2 601C161.3 601 184.7 601 207.8 601C231 601 254 601 277 601C300 601 323 601 346 601C369 601 392 601 415.2 601C438.3 601 461.7 601 484.8 601C508 601 531 601 554 601C577 601 600 601 623 601C646 601 669 601 692.2 601C715.3 601 738.7 601 761.8 601C785 601 808 601 831 601C854 601 877 601 888.5 601L900 601L900 563L888.5 550C877 537 854 511 831 500C808 489 785 493 761.8 479C738.7 465 715.3 433 692.2 437C669 441 646 481 623 496C600 511 577 501 554 488C531 475 508 459 484.8 451C461.7 443 438.3 443 415.2 455C392 467 369 491 346 498C323 505 300 495 277 489C254 483 231 481 207.8 482C184.7 483 161.3 487 138.2 479C115 471 92 451 69 451C46 451 23 471 11.5 481L0 491Z" fill="#1b1b1b"></path></svg>